<svg width="208" height="39" viewBox="0 0 208 39" fill="none" xmlns="http://www.w3.org/2000/svg">
<g id="Frame" clip-path="url(#clip0_1_152)">
<path id="Vector" d="M18.8357 14.7282C15.9202 13.9219 13.1129 13.7606 13.1129 11.933C13.1129 10.643 14.2466 9.78296 16.4062 9.78296C18.4578 9.78296 19.9155 10.8042 20.3474 12.3093L30.3356 9.89045C28.9858 3.2789 22.939 0 16.2982 0C7.98376 0 1.45098 4.83771 1.45098 12.2018C1.45098 19.9422 6.526 22.361 13.4367 24.0273C17.216 24.9411 19.5376 25.0487 19.5376 26.93C19.5376 28.3813 17.9719 29.1876 15.8663 29.1876C13.0048 29.1876 10.5212 27.7363 10.3053 25.8012L0.263229 28.9188C1.82894 36.4442 9.33353 38.9705 16.4602 38.9705C26.7183 38.9705 31.6853 33.0578 31.6853 26.285C31.6853 19.9422 28.068 17.2545 18.8357 14.7282Z" fill="#2C2C2C"/>
<path id="Vector_2" d="M145.065 0C133.727 0 125.142 8.38538 125.142 19.4584C125.142 30.5314 133.727 38.9705 145.065 38.9705C156.403 38.9705 164.987 30.5851 164.987 19.4584C164.987 8.33162 156.403 0 145.065 0ZM145.065 27.1988C140.584 27.1988 137.29 24.0273 137.29 19.4584C137.29 17.4055 138.109 15.4367 139.567 13.9851C141.025 12.5335 143.003 11.7181 145.065 11.7181C147.127 11.7181 149.104 12.5335 150.562 13.9851C152.02 15.4367 152.839 17.4055 152.839 19.4584C152.839 24.0273 149.546 27.1988 145.065 27.1988Z" fill="#2C2C2C"/>
<path id="Vector_3" d="M195.274 0.67157V19.6999L183.391 0.67157H172.431V38.2983H184.579V19.2699L196.462 38.2983H207.422V0.67157H195.274Z" fill="#2C2C2C"/>
<path id="Vector_4" d="M74.6673 24.0276C74.1274 23.8932 73.5551 23.7535 73.0152 23.5976C66.9629 21.9312 62.6814 19.2974 62.6814 12.202C62.6643 10.6989 62.9563 9.20819 63.5394 7.82158C64.1225 6.43497 64.9844 5.18182 66.072 4.13919C62.4655 1.39727 58.0407 -0.0635973 53.5032 -0.0105042C42.1653 -0.0105042 33.5755 8.37489 33.5755 19.4479C33.5755 30.5209 42.1599 38.96 53.5032 38.96C57.7441 39.0085 61.8951 37.7424 65.3809 35.3371C65.7697 35.063 66.1476 34.7727 66.5148 34.4717L66.666 34.3373C66.9845 34.0685 67.2976 33.7998 67.6 33.4988L67.6647 33.4397C68.3367 32.7803 68.9611 32.0744 69.5329 31.3272C70.5487 29.9972 71.382 28.5384 72.0109 26.9894C73.4528 28.2147 75.2332 28.9773 77.1183 29.1771C79.2779 29.3007 80.7897 28.3708 80.7897 26.9195C80.7897 25.0381 78.4681 24.9307 74.6888 24.0169L74.6673 24.0276ZM53.5248 27.1882C49.0382 27.1882 45.7449 24.0169 45.7449 19.4479C45.7449 14.8789 49.0382 11.7075 53.5248 11.7075C54.5555 11.6715 55.5827 11.847 56.5423 12.2233C57.502 12.5995 58.3735 13.1684 59.1028 13.8944C59.832 14.6205 60.4034 15.4883 60.7812 16.4437C61.1591 17.3991 61.3356 18.4217 61.2994 19.4479C61.2994 24.0169 58.0059 27.1882 53.5248 27.1882Z" fill="#36A8E0"/>
<path id="Vector_5" d="M102.52 3.29185e-05C97.6303 -0.0667807 92.8829 1.63928 89.1631 4.80012L88.7582 5.16027C88.5152 5.38066 88.2777 5.60641 88.0455 5.84292C87.8133 6.07943 87.6136 6.28907 87.4085 6.52021L87.376 6.55784C86.9391 7.04718 86.5299 7.56041 86.1504 8.09515C85.3523 9.21514 84.6806 10.4193 84.1474 11.6858C84.0611 11.8901 83.9801 12.0889 83.8991 12.2986C83.0799 11.4807 82.1037 10.8356 81.0287 10.4015C79.9536 9.96745 78.8017 9.75342 77.6418 9.77223C75.4822 9.77223 74.3483 10.6323 74.3483 11.9223C74.3483 13.7499 77.1559 13.9112 80.0713 14.7174C81.1079 15.0023 82.0689 15.2872 82.9651 15.5829C90.0702 17.8942 92.9208 20.641 92.9208 26.2742C92.9755 29.3611 91.8237 32.3484 89.7084 34.6059C93.3509 37.4813 97.8775 39.019 102.526 38.9598C113.863 38.9598 122.448 30.5745 122.448 19.4477C122.448 8.32093 113.863 -0.0107117 102.526 -0.0107117L102.52 3.29185e-05ZM102.526 27.188C98.0445 27.188 94.7511 24.0166 94.7511 19.4477C94.7511 17.3948 95.5702 15.426 97.0282 13.9744C98.4862 12.5228 100.464 11.7073 102.526 11.7073C104.588 11.7073 106.565 12.5228 108.023 13.9744C109.481 15.426 110.3 17.3948 110.3 19.4477C110.3 24.0166 107.007 27.188 102.526 27.188Z" fill="#36A8E0"/>
</g>
<defs>
<clipPath id="clip0_1_152">
<rect width="207.159" height="38.9705" fill="white" transform="translate(0.263184)"/>
</clipPath>
</defs>
</svg>
