<svg width="20" height="21" viewBox="0 0 20 21" fill="none" xmlns="http://www.w3.org/2000/svg">
<g id="Upload file">
<g id="Group 347">
<path id="Vector" d="M13.3333 13.8335L9.99999 10.5001L6.66666 13.8335" stroke="white" stroke-width="1.25" stroke-linecap="round" stroke-linejoin="round"/>
<path id="Vector_2" d="M10 10.5001V18.0001" stroke="white" stroke-width="1.25" stroke-linecap="round" stroke-linejoin="round"/>
<path id="Vector_3" d="M16.9916 15.825C17.8044 15.3819 18.4465 14.6808 18.8165 13.8322C19.1866 12.9837 19.2635 12.0361 19.0351 11.1389C18.8068 10.2418 18.2862 9.44629 17.5555 8.8779C16.8248 8.30951 15.9257 8.00064 15 8.00003H13.95C13.6977 7.0244 13.2276 6.11864 12.5749 5.35085C11.9222 4.58307 11.104 3.97324 10.1817 3.5672C9.25943 3.16116 8.25709 2.96949 7.25006 3.0066C6.24304 3.0437 5.25752 3.30861 4.36761 3.78142C3.47771 4.25422 2.70656 4.92261 2.11215 5.73635C1.51774 6.55008 1.11554 7.48797 0.935783 8.47952C0.756025 9.47107 0.803388 10.4905 1.07431 11.4611C1.34523 12.4317 1.83267 13.3282 2.49997 14.0834" stroke="white" stroke-width="1.25" stroke-linecap="round" stroke-linejoin="round"/>
<path id="Vector_4" d="M13.3333 13.8335L9.99999 10.5001L6.66666 13.8335" stroke="white" stroke-width="1.25" stroke-linecap="round" stroke-linejoin="round"/>
</g>
</g>
</svg>
